<?xml version="1.0" encoding="utf-8"?>
<!-- Generator: Adobe Illustrator 22.0.1, SVG Export Plug-In . SVG Version: 6.00 Build 0)  -->
<svg version="1.1"
	 id="Слой_1" xmlns:cc="http://creativecommons.org/ns#" xmlns:dc="http://purl.org/dc/elements/1.1/" xmlns:inkscape="http://www.inkscape.org/namespaces/inkscape" xmlns:rdf="http://www.w3.org/1999/02/22-rdf-syntax-ns#" xmlns:sodipodi="http://sodipodi.sourceforge.net/DTD/sodipodi-0.dtd" xmlns:svg="http://www.w3.org/2000/svg"
	 xmlns="http://www.w3.org/2000/svg" xmlns:xlink="http://www.w3.org/1999/xlink" x="0px" y="0px" viewBox="0 0 36.9 36"
	 style="enable-background:new 0 0 36.9 36;" xml:space="preserve">
<style type="text/css">
	.st0{fill:none;stroke:#293F61;stroke-width:2;stroke-miterlimit:10;}
</style>
<g transform="translate(0,-952.36218)">
	<path class="st0" d="M16.4,955.2C7.9,955.6,1,962.7,1,971.3c0,9,7.2,16.1,16.1,16.1c4.1,0,7.9-1.6,10.9-4.1l-11.4-11.4
		c-0.2-0.2-0.2-0.3-0.2-0.5V955.2L16.4,955.2z M19.8,953.4v14.7l12.8-7.4C29.8,956.5,25.1,953.6,19.8,953.4z M34.1,963.9L21,971.5
		l10.7,10.7c2.6-2.9,4.1-6.7,4.1-10.9C36,968.5,35.3,966.1,34.1,963.9z"/>
</g>
</svg>
