<?xml version="1.0" encoding="utf-8"?>
<!-- Generator: Adobe Illustrator 22.0.1, SVG Export Plug-In . SVG Version: 6.00 Build 0)  -->
<svg version="1.1" id="Слой_1" xmlns="http://www.w3.org/2000/svg" xmlns:xlink="http://www.w3.org/1999/xlink" x="0px" y="0px"
	 viewBox="0 0 37.3 37.3" style="enable-background:new 0 0 37.3 37.3;" xml:space="preserve">
<style type="text/css">
	.st0{fill:none;stroke:#293F61;stroke-width:2;stroke-linecap:round;stroke-linejoin:round;}
</style>
<title>gear-small-menu</title>
<path class="st0" d="M35.1,14.8h-1.3c-0.6,0-1-0.3-1.2-0.9c-0.2-0.6-0.4-1.2-0.7-1.7c-0.2-0.5-0.1-1.1,0.3-1.5l0.9-1
	c0.5-0.5,0.5-1.3,0-1.7l0,0l-3.7-3.7c-0.5-0.5-1.3-0.5-1.7,0h-0.1l-1,1c-0.4,0.4-1,0.5-1.4,0.3c-0.6-0.3-1.1-0.5-1.7-0.7
	c-0.5-0.2-0.9-0.7-0.9-1.2V2.3C22.6,1.6,22,1,21.3,1h-5.2c-0.7,0-1.3,0.6-1.3,1.3v1.3c0,0.5-0.4,1-0.9,1.2c-0.6,0.2-1.2,0.4-1.7,0.7
	c-0.5,0.3-1.1,0.2-1.5-0.2l-0.9-1C9.3,3.9,8.5,3.9,8,4.3l0,0L4.3,8c-0.5,0.5-0.5,1.3,0,1.7l0,0l0.9,1c0.4,0.4,0.5,1,0.3,1.4
	c-0.3,0.6-0.5,1.1-0.7,1.7c-0.2,0.5-0.7,0.9-1.2,0.9H2.3C1.6,14.7,1,15.3,1,16l0,0v5.2c0,0.7,0.6,1.3,1.3,1.3l0,0h1.3
	c0.5,0,1,0.4,1.2,0.9C5,24,5.2,24.6,5.5,25.1c0.2,0.5,0.1,1.1-0.3,1.5l-0.9,0.9c-0.5,0.5-0.5,1.3,0,1.7l0,0L7.9,33
	c0.5,0.5,1.3,0.5,1.7,0l0,0l0.9-1c0.4-0.4,1-0.5,1.5-0.3c0.6,0.3,1.1,0.5,1.7,0.7c0.5,0.2,0.9,0.7,0.9,1.2V35c0,0.7,0.6,1.3,1.3,1.3
	h5.2c0.7,0,1.3-0.6,1.3-1.3l0,0v-1.2c0-0.5,0.3-1,0.9-1.2s1.2-0.4,1.7-0.7c0.5-0.2,1.1-0.1,1.5,0.3l1,1c0.5,0.5,1.3,0.5,1.7,0l0,0
	l3.7-3.7c0.5-0.5,0.5-1.3,0-1.7l0,0l-1-1c-0.4-0.4-0.5-1-0.3-1.5c0.3-0.6,0.5-1.1,0.7-1.7c0.2-0.5,0.7-0.9,1.2-0.9H35
	c0.7,0,1.3-0.6,1.3-1.3v-5.2C36.3,15.5,35.7,14.9,35.1,14.8C35,14.8,35,14.8,35.1,14.8L35.1,14.8z M18.7,26.5
	c-4.3,0-7.8-3.5-7.8-7.8s3.5-7.8,7.8-7.8s7.8,3.5,7.8,7.8l0,0C26.4,23,23,26.5,18.7,26.5L18.7,26.5z"/>
</svg>
