<?xml version="1.0" encoding="utf-8"?>
<!-- Generator: Adobe Illustrator 22.0.1, SVG Export Plug-In . SVG Version: 6.00 Build 0)  -->
<svg version="1.1" id="Слой_1" xmlns="http://www.w3.org/2000/svg" xmlns:xlink="http://www.w3.org/1999/xlink" x="0px" y="0px"
	 viewBox="0 0 18.1 18" style="enable-background:new 0 0 18.1 18;" xml:space="preserve">
<style type="text/css">
	.st0{fill:#FFFFFF;}
</style>
<title>trash</title>
<path class="st0" d="M18,3.1c-0.4-1.4-1.7-2.6-3.1-3c-1.2-0.3-2.2,0-3,0.7l-0.6,0.6l0,0L1.4,11.5c-0.3,0.2-0.5,0.5-0.6,0.9l-0.8,4
	v0.1c0,0.4,0.2,0.7,0.4,1c0.2,0.2,0.4,0.5,1,0.5h0.3l3.9-0.8c0.3-0.1,0.6-0.2,0.8-0.4l0,0l9.5-9.6l1.3-1.3C18,5.1,18.3,4.1,18,3.1z
	 M14.8,7l-8.3,8.3c-0.1-0.1-0.2-0.2-0.3-0.3L3,11.8c-0.1-0.1-0.2-0.2-0.3-0.3L11.1,3l3.8,3.8L14.8,7L14.8,7z M5.5,16.2l-4,0.8H1.4
	c-0.1,0-0.1,0-0.1,0l-0.1-0.2c0,0-0.1-0.2-0.1-0.3l0.8-3.8c0.1-0.3,0.2-0.3,0.2-0.3c0.1-0.1,0.1-0.1,0.3,0.1l3.2,3.2
	c0.1,0.1,0.1,0.1,0.1,0.3c0,0.1,0,0.1,0,0.1S5.7,16.2,5.5,16.2z M16.5,5.1L15.6,6l-3.7-3.7L12,2.2l0,0l0.6-0.6
	c0.7-0.7,1.5-0.6,2-0.5c1.1,0.3,2.2,1.3,2.4,2.3C17.2,4.1,17,4.6,16.5,5.1z"/>
</svg>
