<?xml version="1.0" encoding="utf-8"?>
<!-- Generator: Adobe Illustrator 22.0.1, SVG Export Plug-In . SVG Version: 6.00 Build 0)  -->
<svg version="1.1" id="Слой_1" xmlns="http://www.w3.org/2000/svg" xmlns:xlink="http://www.w3.org/1999/xlink" x="0px" y="0px"
	 viewBox="0 0 20.3 20.3" style="enable-background:new 0 0 20.3 20.3;" xml:space="preserve">
<style type="text/css">
	.st0{fill:none;stroke:#F09318;stroke-width:1.5;}
</style>
<title>password</title>
<path class="st0" d="M18.6,10.5c-1.2,2-3.3,3.2-5.6,3.2c-0.4,0-0.8,0-1.2-0.1l-0.9,1c-0.2,0.2-0.4,0.3-0.7,0.3H9v1.5
	c0,0.2-0.1,0.5-0.3,0.6c-0.2,0.2-0.4,0.3-0.6,0.3H6.6v1.5c0,0.3-0.1,0.5-0.3,0.7c-0.2,0.2-0.4,0.2-0.6,0.3H1.6
	c-0.2,0-0.5-0.1-0.6-0.3c-0.2-0.2-0.3-0.4-0.3-0.6V16c0-0.2,0.1-0.5,0.3-0.6l5.9-5.9c-0.2-0.6-0.3-1.3-0.3-2C6.6,6.1,6.9,5,7.4,4
	c1.8-3.1,5.7-4.2,8.8-2.4C17.2,2.2,18,3,18.6,4s0.9,2.1,0.9,3.2C19.5,8.4,19.2,9.5,18.6,10.5z M13.6,6.7c0.6,0.7,1.7,0.7,2.4,0.1
	c0,0,0,0,0.1-0.1c0.3-0.3,0.5-0.8,0.5-1.2c0-1-0.8-1.8-1.8-1.8S13,4.5,13,5.5C13,6,13.2,6.4,13.6,6.7z"/>
</svg>
