<?xml version="1.0" encoding="utf-8"?>
<!-- Generator: Adobe Illustrator 22.0.1, SVG Export Plug-In . SVG Version: 6.00 Build 0)  -->
<svg version="1.1" id="Слой_1" xmlns="http://www.w3.org/2000/svg" xmlns:xlink="http://www.w3.org/1999/xlink" x="0px" y="0px"
	 viewBox="0 0 17.9 17.9" style="enable-background:new 0 0 17.9 17.9;" xml:space="preserve">
<style type="text/css">
	.st0{fill:#F09318;}
</style>
<path class="st0" d="M1.4,4.1C2.9,1.9,5.3,0.3,8.1,0l0.8,1.5L8,3.2C6.4,3.5,5,4.4,4.1,5.7l-1-1.5L1.4,4.1z M10.2,1.6L9.4,3.1
	C11,3.2,12.5,4,13.5,5.2l1.9-0.1l0.9-1.4c-1.5-2.1-4-3.6-6.9-3.7L10.2,1.6z M16,6.3l-1.8,0.1C14.6,7.2,14.8,8,14.8,9
	c0,0.7-0.1,1.4-0.4,2.1l1,1.5l1.7,0.1c0.5-1.1,0.8-2.4,0.8-3.7c0-1.5-0.4-2.9-1-4.1L16,6.3z M14.8,13.7l-1-1.5
	c-0.9,1.3-2.3,2.2-3.9,2.5l-0.8,1.7l0.8,1.5c2.8-0.3,5.2-1.8,6.7-4.1L14.8,13.7z M2,11.6l1.8-0.1C3.4,10.7,3.1,9.9,3.1,9
	c0-0.7,0.1-1.4,0.4-2.1l-1-1.5L0.8,5.3C0.3,6.4,0,7.6,0,9c0,1.5,0.4,2.9,1,4.1L2,11.6z M7.8,16.3l0.8-1.6c-1.6-0.1-3.1-0.9-4.1-2.1
	l-1.9,0.1l-0.9,1.4c1.5,2.1,4,3.6,6.9,3.7L7.8,16.3z"/>
</svg>
