<?xml version="1.0" encoding="utf-8"?>
<!-- Generator: Adobe Illustrator 22.0.1, SVG Export Plug-In . SVG Version: 6.00 Build 0)  -->
<svg version="1.1" id="Слой_1" xmlns="http://www.w3.org/2000/svg" xmlns:xlink="http://www.w3.org/1999/xlink" x="0px" y="0px"
	 viewBox="0 0 19.3 20" style="enable-background:new 0 0 19.3 20;" xml:space="preserve">
<style type="text/css">
	.st0{fill:none;stroke:#F09318;stroke-width:1.5;stroke-miterlimit:10;}
</style>
<title>user-signup</title>
<path class="st0" d="M9.6,0.8c-2.4,0-4.3,2-4.3,4.3c0,2.4,2,4.4,4.3,4.4c2.4,0,4.4-2,4.4-4.3l0,0C14.1,2.8,12.1,0.8,9.6,0.8L9.6,0.8
	z"/>
<path class="st0" d="M0.8,19.3h17.7c-0.2-2.8-1-6.1-4.1-7.8c-0.6-0.3-1.2-0.1-2.2,0.3c-0.8,0.3-1.6,0.5-2.5,0.5
	c-0.8,0-1.7-0.2-2.5-0.5c-1-0.3-1.6-0.6-2.2-0.3C3.2,12.6,1,14.8,0.8,19.3z"/>
</svg>
